<?xml version="1.0"?>
<svg width="742.41705" height="712.57302" xmlns="http://www.w3.org/2000/svg" xmlns:svg="http://www.w3.org/2000/svg" data-name="Layer 1">
 <g class="layer">
  <title>Layer 1</title>
  <path d="m853.61,262.61l-3.9,0l0,-106.98a61.91,61.91 0 0 0 -61.92,-61.92l-226.65,0a61.91,61.91 0 0 0 -61.91,61.92l0,586.88a61.91,61.91 0 0 0 61.91,61.92l226.65,0a61.91,61.91 0 0 0 61.91,-61.92l0,-403.76l3.9,0l0.01,-76.14z" data-name="Path 968" fill="#3f3d56" id="aa38b2e7-2ea9-4025-adcf-83f87c0cfc4a" transform="translate(-228.79147 -93.71349)"/>
  <path d="m608.22,57.77l0,595.18a46.96,46.96 0 0 1 -46.95,46.95l-231.3,0a46.97,46.97 0 0 1 -46.97,-46.95l0,-595.18a46.97,46.97 0 0 1 46.97,-46.95l28.06,0a22.33,22.33 0 0 0 20.66,30.74l131.86,0a22.33,22.33 0 0 0 20.66,-30.74l30.06,0a46.96,46.96 0 0 1 46.95,46.94l0,0.01z" data-name="Path 969" fill="#fff" id="f27259c2-0089-4137-bfd8-cb22dff914f1" transform="matrix(1 0 0 1 0 0)"/>
  <circle cx="445.56" cy="200.13" data-name="Ellipse 18" fill="#af1817" id="fc31cc31-f989-45cc-bd1e-521a0ee1871b" r="96.56" transform="matrix(1 0 0 1 0 0)"/>
  <path d="m779.67,494.31l-205.53,0a3.81,3.81 0 0 1 -3.81,-3.81l0,-50.98a3.81,3.81 0 0 1 3.81,-3.81l205.53,0a3.81,3.81 0 0 1 3.81,3.81l0,50.98a3.81,3.81 0 0 1 -3.81,3.81zm-205.53,-57.07a2.29,2.29 0 0 0 -2.29,2.28l0,50.98a2.29,2.29 0 0 0 2.29,2.29l205.53,0a2.29,2.29 0 0 0 2.29,-2.29l0,-50.98a2.29,2.29 0 0 0 -2.29,-2.28l-205.53,0z" data-name="Path 39" fill="#e6e6e6" id="a573942c-3bf3-4c43-b474-689725a927f7" transform="translate(-228.79147 -93.71349)"/>
  <path d="m637.7,454.07a2.66,2.66 0 0 0 0,5.33l125.6,0a2.67,2.67 0 0 0 0.21,-5.32q-0.06,0 -0.12,0l-125.69,0l0,-0.01z" data-name="Path 40" fill="#e6e6e6" id="fb5feb1e-1fe2-48fa-806d-0a2b51d12b49" transform="translate(-228.79147 -93.71349)"/>
  <path d="m637.7,470.06a2.66,2.66 0 0 0 0,5.33l125.6,0a2.67,2.67 0 0 0 0.21,-5.33q-0.06,0 -0.12,0l-125.69,0z" data-name="Path 41" fill="#e6e6e6" id="bcb9932f-0864-4b7e-b0ed-f7254bb9b8bf" transform="translate(-228.79147 -93.71349)"/>
  <path d="m779.67,579.29l-205.53,0a3.81,3.81 0 0 1 -3.81,-3.81l0,-50.98a3.81,3.81 0 0 1 3.81,-3.81l205.53,0a3.81,3.81 0 0 1 3.81,3.81l0,50.98a3.81,3.81 0 0 1 -3.81,3.81zm-205.53,-57.07a2.29,2.29 0 0 0 -2.29,2.28l0,50.98a2.29,2.29 0 0 0 2.29,2.29l205.53,0a2.29,2.29 0 0 0 2.29,-2.29l0,-50.98a2.29,2.29 0 0 0 -2.29,-2.28l-205.53,0z" data-name="Path 42" fill="#e6e6e6" id="f88e2a8b-becc-4da9-bd36-af011daaaaf2" transform="translate(-228.79147 -93.71349)"/>
  <path d="m637.7,539.33a2.66,2.66 0 0 0 0,5.33l125.6,0a2.67,2.67 0 0 0 0.09,-5.33l-125.69,0z" data-name="Path 43" fill="#e6e6e6" id="e192d34f-2ccc-4f79-b47a-46430e4d87f6" transform="translate(-228.79147 -93.71349)"/>
  <path d="m637.7,555.32a2.66,2.66 0 0 0 0,5.33l125.6,0a2.67,2.67 0 0 0 0.09,-5.33l-125.69,0z" data-name="Path 44" fill="#e6e6e6" id="b230677c-48cc-4ee6-87d6-a753204ffe47" transform="translate(-228.79147 -93.71349)"/>
  <path d="m779.67,664.55l-205.53,0a3.81,3.81 0 0 1 -3.81,-3.81l0,-50.98a3.81,3.81 0 0 1 3.81,-3.81l205.53,0a3.81,3.81 0 0 1 3.81,3.81l0,50.98a3.81,3.81 0 0 1 -3.81,3.81zm-205.53,-57.08a2.29,2.29 0 0 0 -2.29,2.29l0,50.98a2.29,2.29 0 0 0 2.29,2.29l205.53,0a2.29,2.29 0 0 0 2.29,-2.29l0,-50.98a2.29,2.29 0 0 0 -2.29,-2.29l-205.53,0z" data-name="Path 39-2" fill="#e6e6e6" id="b88a2a79-0ae3-4fd9-9894-02e0db9a2271" transform="translate(-228.79147 -93.71349)"/>
  <path d="m637.7,624.59a2.66,2.66 0 1 0 0,5.33l125.6,0a2.67,2.67 0 0 0 0.21,-5.33q-0.06,0 -0.12,0l-125.69,0z" data-name="Path 40-2" fill="#e6e6e6" id="aa2394a9-8b56-4a12-a2cd-a583e6ea12eb" transform="translate(-228.79147 -93.71349)"/>
  <path d="m637.7,640.58a2.66,2.66 0 0 0 0,5.33l125.6,0a2.67,2.67 0 0 0 0.21,-5.33q-0.06,0 -0.12,0l-125.69,0z" data-name="Path 41-2" fill="#e6e6e6" id="bc352cb2-8959-4b51-bd18-df6817a9a47e" transform="translate(-228.79147 -93.71349)"/>
  <path d="m969.27,806.29l-738.54,0c-1.07,0 -1.94,-0.47 -1.94,-1.05s0.87,-1.04 1.94,-1.04l738.54,0c1.07,0 1.94,0.46 1.94,1.04s-0.87,1.05 -1.94,1.05z" data-name="Path 970" fill="#e6e6e6" id="b30ee82f-5b3a-4aa4-9db7-ead828191937" transform="translate(-228.79147 -93.71349)"/>
  <g data-name="Group 58" id="f24cf2fd-107c-4150-a0f1-6f6b12d88bf3">
   <path d="m937.99,765.52a19.47,19.47 0 0 1 -18.8,-3.31c-6.59,-5.53 -8.66,-14.64 -10.34,-23.07l-4.97,-24.95l10.41,7.17c7.48,5.15 15.13,10.47 20.32,17.93s7.44,17.65 3.28,25.73" data-name="Path 438" fill="#e6e6e6" id="a2b576eb-bb95-4480-aa60-cd8aa023fe61" transform="translate(-228.79147 -93.71349)"/>
   <path d="m936.39,797.46c1.31,-9.54 2.65,-19.21 1.73,-28.85c-0.81,-8.57 -3.43,-16.93 -8.75,-23.79a39.57,39.57 0 0 0 -10.15,-9.2c-1.01,-0.64 -1.95,0.97 -0.94,1.61a37.62,37.62 0 0 1 14.88,17.95c3.24,8.24 3.76,17.23 3.2,25.98c-0.33,5.29 -1.05,10.55 -1.77,15.8a0.96,0.96 0 0 0 0.65,1.15a0.94,0.94 0 0 0 1.14,-0.65l0.01,0z" data-name="Path 439" fill="#f2f2f2" id="fe1c5433-44e0-47a6-8430-329cbd7c4dea" transform="translate(-228.79147 -93.71349)"/>
   <path d="m926.96,782.15a14.34,14.34 0 0 1 -12.49,6.45c-6.33,-0.3 -11.6,-4.72 -16.34,-8.9l-14.04,-12.4l9.29,-0.44c6.68,-0.32 13.53,-0.62 19.9,1.44s12.23,7.02 13.4,13.6" data-name="Path 442" fill="#e6e6e6" id="f0043cfc-c9b9-4981-8afd-8c13c1b6f93f" transform="translate(-228.79147 -93.71349)"/>
   <path d="m940.09,802.94c-6.3,-11.15 -13.62,-23.55 -26.69,-27.51a29.78,29.78 0 0 0 -11.22,-1.16c-1.19,0.1 -0.9,1.94 0.3,1.83a27.66,27.66 0 0 1 17.91,4.74c5.05,3.44 8.98,8.22 12.31,13.29c2.04,3.1 3.87,6.34 5.69,9.57c0.58,1.03 2.29,0.29 1.7,-0.76z" data-name="Path 443" fill="#f2f2f2" id="b883c521-5e9e-4a38-b47c-4f8b0cd8c6cd" transform="translate(-228.79147 -93.71349)"/>
  </g>
  <g data-name="Group 59" id="b241f6a5-c54d-499c-8ecd-4235a19d143f" transform="matrix(1 0 0 1 0 0)">
   <circle cx="370.99" cy="370.49" data-name="Ellipse 5" fill="#af1817" id="bfaee8a8-2192-45bf-83cb-a2f223d41a02" r="15.99"/>
   <path d="m592.12,461.21c-0.18,0 -0.33,1.2 -0.33,2.67s0.15,2.66 0.33,2.66l15.72,0c0.19,0.03 0.34,-1.15 0.34,-2.62a5.94,5.94 0 0 0 -0.33,-2.71l-15.73,0z" data-name="Path 40-3" fill="#af1817" id="ae47602b-fb54-4e88-955d-49b260f35f7f" transform="translate(-228.791 -93.7135)"/>
  </g>
  <g data-name="Group 60" id="a1e1e52b-75f8-4aa9-8279-faf451e6aae1" transform="matrix(1 0 0 1 0 0)">
   <circle cx="370.99" cy="456.28" data-name="Ellipse 5-2" fill="#af1817" id="fa3a3ce2-c232-40ee-81b4-25b83d5b931c" r="15.99"/>
   <path d="m592.12,547.01c-0.18,0 -0.33,1.19 -0.33,2.66s0.15,2.66 0.33,2.66l15.72,0c0.19,0.03 0.34,-1.14 0.34,-2.62a5.94,5.94 0 0 0 -0.33,-2.7l-15.73,0z" data-name="Path 40-4" fill="#af1817" id="aaaffa69-7c16-47ec-b12d-87139789d2df" transform="translate(-228.79147 -93.71349)"/>
  </g>
  <g data-name="Group 61" id="fd2b54c2-3dec-4fb6-9f72-e6c667a136b8">
   <circle cx="370.99" cy="541.54" data-name="Ellipse 5-3" fill="#af1817" id="abc19202-5605-459b-9c25-b430addb8839" r="15.99"/>
   <path d="m592.12,632.26c-0.18,0 -0.33,1.2 -0.33,2.67s0.15,2.66 0.33,2.66l15.72,0c0.19,0.03 0.34,-1.15 0.34,-2.62a5.94,5.94 0 0 0 -0.33,-2.71l-15.73,0z" data-name="Path 40-5" fill="#af1817" id="f69fbb38-8754-494b-94fa-96f6df4fd0e7" transform="translate(-228.79147 -93.71349)"/>
  </g>
  <rect fill="#fff" height="67" id="svg_1" transform="translate(-239.05506 469.193) rotate(-45)" width="8" x="670.36" y="260.34"/>
  <rect fill="#fff" height="67" id="svg_2" transform="matrix(1 0 0 1 0 0) matrix(0.707107 0.707107 -0.707107 0.707107 0 0)" width="8" x="452.57" y="-207.05"/>
  <path d="m319.05,549.85a10.06,10.06 0 0 0 5.39,-14.45l23.56,-26.86l-18.39,-2.54l-19.56,25.9a10.11,10.11 0 0 0 9,17.95z" fill="#9f616a" id="svg_3" transform="translate(-228.79147 -93.71349)"/>
  <polygon fill="#9f616a" id="svg_4" points="118.679 694.215 102.244 694.214 94.425 630.82 118.682 630.821 118.679 694.215"/>
  <path d="m351.66,803.86l-52.99,0l0,-0.67a20.63,20.63 0 0 1 20.62,-20.63l0.01,0l32.36,0l0,21.3z" fill="#2f2e41" id="svg_5" transform="translate(-228.79147 -93.71349)"/>
  <polygon fill="#9f616a" id="svg_6" points="204.713 680.461 189.017 685.334 162.751 627.11 185.917 619.918 204.713 680.461"/>
  <path d="m442.23,788.15l-50.61,15.71l-0.2,-0.64a20.63,20.63 0 0 1 13.58,-25.82l0.01,0l30.91,-9.59l6.31,20.34z" fill="#2f2e41" id="svg_7" transform="translate(-228.79147 -93.71349)"/>
  <path d="m334.88,495.66l-24.34,27.87l19.06,1.72l5.28,-29.59z" data-name="Path 973" fill="#e6e6e6" id="ae9bdfa9-f7e0-4b2f-8168-ca8868d01318" transform="translate(-228.79147 -93.71349)"/>
  <path d="m325.37,531.59s-8.45,4.23 -9.51,23.25s3.17,68.7 3.17,68.7s-4.22,22.19 0,42.27s-4.22,93 1.06,93s32.76,3.18 33.82,0s2.11,-50.72 2.11,-50.72s8.46,-24.31 0,-39.1c0,0 29.52,51.54 48.62,90.88c4.18,8.61 35.93,-1.05 30.65,-10.56s-17.97,-52.85 -17.97,-52.85s-9.51,-31.7 -26.42,-45.44l8.45,-67.64s17.97,-45.45 7.4,-51.79s-81.38,0 -81.38,0z" data-name="Path 975" fill="#2f2e41" id="b88343d2-9c47-4183-8a8a-427a73d8d9be" transform="translate(-228.79147 -93.71349)"/>
  <circle cx="128.29" cy="238.13" data-name="Ellipse 182" fill="#a0616a" id="fdc24b21-a9e1-47f2-b2e4-7458730b7c21" r="27.48"/>
  <path d="m387.73,361.43l-34.16,20.08s-13.08,7.37 -17.97,20.08c-5.21,13.55 -2.18,32.63 0,36.99c4.23,8.46 -1.77,29.6 -1.77,29.6l-5.29,48.61s-19.02,17.97 -4.22,20.08s41.21,-1.06 57.07,0s33.82,3.17 28.53,-7.4s-11.62,-17.97 -5.28,-39.1c4.96,-16.54 4.75,-78.38 4.42,-104.5a21.02,21.02 0 0 0 -10.21,-17.77l-11.12,-6.67z" data-name="Path 976" fill="#e5e5e5" id="ac268c91-41f4-49c7-bce6-773e5eb69fa2" transform="translate(-228.79147 -93.71349)"/>
  <path d="m372.41,394.73l3.17,64.46l-30.73,62.23l-5.21,-1.99l31.71,-58.12l1.06,-66.58z" data-name="Path 980" id="aebed2c8-94ca-417e-8b11-27e17cbf3024" opacity="0.1" transform="translate(-228.79147 -93.71349)"/>
  <path d="m407.28,472.93l0,-7.4l-35.93,59.19l35.93,-51.79z" data-name="Path 982" id="e13ea0c4-bc86-4025-9528-1665a42d3372" opacity="0.1" transform="translate(-228.79147 -93.71349)"/>
  <path d="m337.58,306.39l-4.54,-1.82s9.5,-10.46 22.71,-9.55l-3.72,-4.09s9.09,-3.64 17.35,5.91c4.34,5.02 9.36,10.92 12.5,17.57l4.86,0l-2.03,4.47l7.11,4.47l-7.29,-0.8a24.74,24.74 0 0 1 -0.69,11.58l0.2,3.53s-8.46,-13.09 -8.46,-14.9l0,4.54s-4.55,-4.09 -4.55,-6.82l-2.47,3.19l-1.24,-5l-15.28,5l2.47,-4.1l-9.5,1.37l3.72,-5s-10.74,5.91 -11.15,10.91s-5.78,11.36 -5.78,11.36l-2.48,-4.54s-3.72,-20.46 8.26,-27.28z" data-name="Path 983" fill="#2f2e41" id="eb3190ba-6b3f-4b2b-91d1-1543e580b413" transform="translate(-228.79147 -93.71349)"/>
  <path d="m355.35,552.84a10.06,10.06 0 0 0 2.74,-15.18l18.42,-30.62l-18.55,0.77l-14.65,28.96a10.11,10.11 0 0 0 12.04,16.07z" fill="#9f616a" id="svg_8" transform="translate(-228.79147 -93.71349)"/>
  <path d="m397.24,375.18l7.93,-1.59s23.78,17.44 16.38,52.31s-40.16,87.72 -40.16,87.72s-7.4,9.52 -9.51,11.63s-6.35,0 -4.23,3.17s-3.17,5.28 -3.17,5.28s-23.25,0 -21.14,-8.45s38.05,-68.7 38.05,-68.7l-5.29,-56.01s-4.23,-27.48 21.14,-25.36z" data-name="Path 981" fill="#e5e5e5" id="a62f6567-f472-4931-86f9-ff652851a370" transform="translate(-228.79147 -93.71349)"/>
 </g>
</svg>